<?xml version="1.0" encoding="UTF-8" standalone="no"?>
<!-- Created with Inkscape (http://www.inkscape.org/) -->

<svg
   xmlns:dc="http://purl.org/dc/elements/1.1/"
   xmlns:cc="http://creativecommons.org/ns#"
   xmlns:rdf="http://www.w3.org/1999/02/22-rdf-syntax-ns#"
   xmlns:svg="http://www.w3.org/2000/svg"
   xmlns="http://www.w3.org/2000/svg"
   xmlns:sodipodi="http://sodipodi.sourceforge.net/DTD/sodipodi-0.dtd"
   xmlns:inkscape="http://www.inkscape.org/namespaces/inkscape"
   width="1000"
   height="1000"
   viewBox="0 0 264.58333 264.58333"
   version="1.1"
   id="svg8"
   inkscape:version="0.92.4 (5da689c313, 2019-01-14)"
   sodipodi:docname="search.svg">
  <defs
     id="defs2" />
  <sodipodi:namedview
     id="base"
     pagecolor="#ffffff"
     bordercolor="#666666"
     borderopacity="1.0"
     inkscape:pageopacity="0.0"
     inkscape:pageshadow="2"
     inkscape:zoom="0.24748737"
     inkscape:cx="440.31674"
     inkscape:cy="-434.03297"
     inkscape:document-units="px"
     inkscape:current-layer="layer1"
     showgrid="false"
     units="px"
     inkscape:window-width="1920"
     inkscape:window-height="1017"
     inkscape:window-x="1672"
     inkscape:window-y="-8"
     inkscape:window-maximized="1" />
  <metadata
     id="metadata5">
    <rdf:RDF>
      <cc:Work
         rdf:about="">
        <dc:format>image/svg+xml</dc:format>
        <dc:type
           rdf:resource="http://purl.org/dc/dcmitype/StillImage" />
        <dc:title></dc:title>
      </cc:Work>
    </rdf:RDF>
  </metadata>
  <g
     inkscape:label="Layer 1"
     inkscape:groupmode="layer"
     id="layer1"
     transform="translate(0,-32.416697)">
    <g
       id="g869"
       transform="matrix(2.1807409,0.40892729,-0.40892729,2.1807409,-6.1876222,-206.29073)"
       style="fill:#646464;fill-opacity:1">
      <path
         id="path10"
         transform="scale(0.26458333)"
         d="M 368.57227,371.0918 A 157.14286,157.14286 0 0 0 211.42773,528.23438 157.14286,157.14286 0 0 0 368.57227,685.37695 157.14286,157.14286 0 0 0 525.71484,528.23438 157.14286,157.14286 0 0 0 368.57227,371.0918 Z m 0,62.85742 a 94.285713,94.285713 0 0 1 94.28515,94.28516 94.285713,94.285713 0 0 1 -94.28515,94.28515 94.285713,94.285713 0 0 1 -94.28711,-94.28515 94.285713,94.285713 0 0 1 94.28711,-94.28516 z"
         style="opacity:1;vector-effect:none;fill:#646464;fill-opacity:1;stroke-width:0.99999994;stroke-linecap:butt;stroke-linejoin:miter;stroke-miterlimit:4;stroke-dasharray:none;stroke-dashoffset:0;stroke-opacity:1"
         inkscape:connector-curvature="0" />
      <rect
         transform="rotate(30)"
         ry="9.0714283"
         y="100.75941"
         x="145.55736"
         height="54.42857"
         width="18.142857"
         id="rect864"
         style="opacity:1;vector-effect:none;fill:#646464;fill-opacity:1;stroke-width:0.17162161;stroke-linecap:butt;stroke-linejoin:miter;stroke-miterlimit:4;stroke-dasharray:none;stroke-dashoffset:0;stroke-opacity:1" />
    </g>
  </g>
</svg>
